<svg width="101" height="102" viewBox="0 0 101 102" fill="none" xmlns="http://www.w3.org/2000/svg">
<path fill-rule="evenodd" clip-rule="evenodd" d="M100.431 70.0448C81.1542 77.9401 58.1827 73.8595 42.8034 57.9826C27.4241 42.1057 24.0767 19.016 32.5815 0C26.5722 2.46123 20.9219 6.08626 15.9725 10.8805C-4.85375 31.0541 -5.38283 64.2911 14.7908 85.1173C34.9644 105.944 68.2013 106.473 89.0276 86.2991C93.9769 81.5048 97.78 75.9727 100.431 70.0448Z" fill="url(#paint0_linear_86_103)"/>
<path d="M48.4999 24L51.7142 36.1429H45.2856L48.4999 24Z" fill="#FBFCD9"/>
<path d="M48.5001 49L45.2858 36.1429L51.7144 36.1429L48.5001 49Z" fill="#FBFCD9"/>
<path d="M61 36.1429L48.1429 39.7143L48.1429 32.5714L61 36.1429Z" fill="#FBFCD9"/>
<path d="M36 36.1428L48.8571 32.5714L48.8571 39.7143L36 36.1428Z" fill="#FBFCD9"/>
<path d="M57.0001 0L59.3144 8.74286H54.6858L57.0001 0Z" fill="#FBFCD9"/>
<path d="M56.9999 18L54.6856 8.74286L59.3142 8.74286L56.9999 18Z" fill="#FBFCD9"/>
<path d="M66 8.74286L56.7429 11.3143L56.7429 6.17143L66 8.74286Z" fill="#FBFCD9"/>
<path d="M48 8.74286L57.2571 6.17143L57.2571 11.3143L48 8.74286Z" fill="#FBFCD9"/>
<path d="M40.0001 12L41.2858 16.8571H38.7144L40.0001 12Z" fill="#FBFCD9"/>
<path d="M39.9999 22L38.7142 16.8571L41.2856 16.8571L39.9999 22Z" fill="#FBFCD9"/>
<path d="M45 16.8571L39.8571 18.2857L39.8571 15.4286L45 16.8571Z" fill="#FBFCD9"/>
<path d="M35 16.8571L40.1429 15.4286L40.1429 18.2857L35 16.8571Z" fill="#FBFCD9"/>
<path d="M62.0001 19L63.2858 23.8571H60.7144L62.0001 19Z" fill="#FBFCD9"/>
<path d="M61.9999 29L60.7142 23.8571L63.2856 23.8571L61.9999 29Z" fill="#FBFCD9"/>
<path d="M67 23.8571L61.8571 25.2857L61.8571 22.4286L67 23.8571Z" fill="#FBFCD9"/>
<path d="M57 23.8571L62.1429 22.4286L62.1429 25.2857L57 23.8571Z" fill="#FBFCD9"/>
<defs>
<linearGradient id="paint0_linear_86_103" x1="50.2156" y1="0" x2="50.2156" y2="101.09" gradientUnits="userSpaceOnUse">
<stop stop-color="#FEFFE1"/>
<stop offset="1" stop-color="#D8DA86"/>
</linearGradient>
</defs>
</svg>
