<svg width="239" height="190" viewBox="0 0 239 190" fill="none" xmlns="http://www.w3.org/2000/svg">
<g filter="url(#filter0_bd_22_227)">
<path d="M14 97.9476C14 78.0364 30.2064 61.8952 50.198 61.8952H138.802C158.794 61.8952 175 78.0364 175 97.9476C175 117.859 158.794 134 138.802 134H50.198C30.2064 134 14 117.859 14 97.9476Z" fill="url(#paint0_linear_22_227)" shape-rendering="crispEdges"/>
<path d="M141.503 61.8952C100.443 61.8952 123.12 61.8952 100.443 61.8952C77.7659 61.8952 100.443 61.8952 59.3825 61.8952C59.3825 39.3094 77.7659 21 100.443 21C123.12 21 141.503 39.3094 141.503 61.8952Z" fill="url(#paint1_linear_22_227)" shape-rendering="crispEdges"/>
<path d="M142.002 61.5323C141.806 38.8356 123.273 20.5 100.443 20.5C77.6592 20.5 59.1545 38.7618 58.8855 61.3952H50.198C29.9321 61.3952 13.5 77.7584 13.5 97.9476C13.5 118.137 29.9322 134.5 50.198 134.5H138.802C159.068 134.5 175.5 118.137 175.5 97.9476C175.5 78.8324 160.77 63.147 142.002 61.5323Z" stroke="url(#paint2_linear_22_227)" shape-rendering="crispEdges"/>
</g>
<g filter="url(#filter1_bd_22_227)">
<path d="M73 114.414C73 96.97 87.1932 82.8286 104.701 82.8286H182.299C199.807 82.8286 214 96.97 214 114.414C214 131.859 199.807 146 182.299 146H104.701C87.1932 146 73 131.859 73 114.414Z" fill="url(#paint3_linear_22_227)" shape-rendering="crispEdges"/>
<path d="M184.664 82.8286C148.705 82.8286 168.565 82.8286 148.705 82.8286C128.845 82.8286 148.705 82.8286 112.745 82.8286C112.745 63.041 128.845 47 148.705 47C168.565 47 184.664 63.041 184.664 82.8286Z" fill="url(#paint4_linear_22_227)" shape-rendering="crispEdges"/>
<path d="M185.163 82.4537C184.961 62.561 168.714 46.5 148.705 46.5C128.738 46.5 112.517 62.4937 112.248 82.3286H104.701C86.9188 82.3286 72.5 96.6921 72.5 114.414C72.5 132.136 86.9188 146.5 104.701 146.5H182.299C200.081 146.5 214.5 132.136 214.5 114.414C214.5 97.654 201.604 83.8976 185.163 82.4537Z" stroke="url(#paint5_linear_22_227)" shape-rendering="crispEdges"/>
</g>
<line x1="66.3137" y1="151.536" x2="58.5355" y2="159.314" stroke="url(#paint6_linear_22_227)" stroke-width="5" stroke-linecap="round"/>
<line x1="71.6274" y1="166.536" x2="63.8493" y2="174.314" stroke="url(#paint7_linear_22_227)" stroke-width="5" stroke-linecap="round"/>
<line x1="86.3137" y1="151.536" x2="78.5355" y2="159.314" stroke="url(#paint8_linear_22_227)" stroke-width="5" stroke-linecap="round"/>
<line x1="91.6274" y1="166.536" x2="83.8493" y2="174.314" stroke="url(#paint9_linear_22_227)" stroke-width="5" stroke-linecap="round"/>
<line x1="77.6274" y1="179.536" x2="69.8493" y2="187.314" stroke="url(#paint10_linear_22_227)" stroke-width="5" stroke-linecap="round"/>
<line x1="106.314" y1="151.536" x2="98.5355" y2="159.314" stroke="url(#paint11_linear_22_227)" stroke-width="5" stroke-linecap="round"/>
<line x1="111.627" y1="166.536" x2="103.849" y2="174.314" stroke="url(#paint12_linear_22_227)" stroke-width="5" stroke-linecap="round"/>
<line x1="97.6274" y1="179.536" x2="89.8493" y2="187.314" stroke="url(#paint13_linear_22_227)" stroke-width="5" stroke-linecap="round"/>
<line x1="126.314" y1="151.536" x2="118.536" y2="159.314" stroke="url(#paint14_linear_22_227)" stroke-width="5" stroke-linecap="round"/>
<line x1="131.627" y1="166.536" x2="123.849" y2="174.314" stroke="url(#paint15_linear_22_227)" stroke-width="5" stroke-linecap="round"/>
<line x1="117.627" y1="179.536" x2="109.849" y2="187.314" stroke="url(#paint16_linear_22_227)" stroke-width="5" stroke-linecap="round"/>
<line x1="146.314" y1="151.536" x2="138.536" y2="159.314" stroke="url(#paint17_linear_22_227)" stroke-width="5" stroke-linecap="round"/>
<defs>
<filter id="filter0_bd_22_227" x="-37" y="-30" width="263" height="215" filterUnits="userSpaceOnUse" color-interpolation-filters="sRGB">
<feFlood flood-opacity="0" result="BackgroundImageFix"/>
<feGaussianBlur in="BackgroundImage" stdDeviation="25"/>
<feComposite in2="SourceAlpha" operator="in" result="effect1_backgroundBlur_22_227"/>
<feColorMatrix in="SourceAlpha" type="matrix" values="0 0 0 0 0 0 0 0 0 0 0 0 0 0 0 0 0 0 127 0" result="hardAlpha"/>
<feOffset dy="4"/>
<feGaussianBlur stdDeviation="12"/>
<feComposite in2="hardAlpha" operator="out"/>
<feColorMatrix type="matrix" values="0 0 0 0 0 0 0 0 0 0 0 0 0 0 0 0 0 0 0.25 0"/>
<feBlend mode="normal" in2="effect1_backgroundBlur_22_227" result="effect2_dropShadow_22_227"/>
<feBlend mode="normal" in="SourceGraphic" in2="effect2_dropShadow_22_227" result="shape"/>
</filter>
<filter id="filter1_bd_22_227" x="22" y="-4" width="243" height="201" filterUnits="userSpaceOnUse" color-interpolation-filters="sRGB">
<feFlood flood-opacity="0" result="BackgroundImageFix"/>
<feGaussianBlur in="BackgroundImage" stdDeviation="25"/>
<feComposite in2="SourceAlpha" operator="in" result="effect1_backgroundBlur_22_227"/>
<feColorMatrix in="SourceAlpha" type="matrix" values="0 0 0 0 0 0 0 0 0 0 0 0 0 0 0 0 0 0 127 0" result="hardAlpha"/>
<feOffset dy="4"/>
<feGaussianBlur stdDeviation="12"/>
<feComposite in2="hardAlpha" operator="out"/>
<feColorMatrix type="matrix" values="0 0 0 0 0 0 0 0 0 0 0 0 0 0 0 0 0 0 0.25 0"/>
<feBlend mode="normal" in2="effect1_backgroundBlur_22_227" result="effect2_dropShadow_22_227"/>
<feBlend mode="normal" in="SourceGraphic" in2="effect2_dropShadow_22_227" result="shape"/>
</filter>
<linearGradient id="paint0_linear_22_227" x1="123.404" y1="28.2643" x2="38.9685" y2="124.921" gradientUnits="userSpaceOnUse">
<stop stop-color="#B7C7E7"/>
<stop offset="1" stop-color="#192A4B" stop-opacity="0.1"/>
</linearGradient>
<linearGradient id="paint1_linear_22_227" x1="123.404" y1="28.2643" x2="38.9685" y2="124.921" gradientUnits="userSpaceOnUse">
<stop stop-color="#B7C7E7"/>
<stop offset="1" stop-color="#192A4B" stop-opacity="0.1"/>
</linearGradient>
<linearGradient id="paint2_linear_22_227" x1="68.6987" y1="36.1523" x2="156.76" y2="130.556" gradientUnits="userSpaceOnUse">
<stop stop-color="white" stop-opacity="0.04"/>
<stop offset="0.103886" stop-color="white" stop-opacity="0.24286"/>
<stop offset="1" stop-color="white"/>
</linearGradient>
<linearGradient id="paint3_linear_22_227" x1="168.814" y1="53.3643" x2="94.8352" y2="138.018" gradientUnits="userSpaceOnUse">
<stop stop-color="white"/>
<stop offset="1" stop-color="#D1D1D1" stop-opacity="0.1"/>
</linearGradient>
<linearGradient id="paint4_linear_22_227" x1="168.814" y1="53.3643" x2="94.8352" y2="138.018" gradientUnits="userSpaceOnUse">
<stop stop-color="white"/>
<stop offset="1" stop-color="#D1D1D1" stop-opacity="0.1"/>
</linearGradient>
<linearGradient id="paint5_linear_22_227" x1="120.904" y1="60.275" x2="198.057" y2="142.953" gradientUnits="userSpaceOnUse">
<stop stop-color="white" stop-opacity="0.04"/>
<stop offset="0.103886" stop-color="white" stop-opacity="0.24286"/>
<stop offset="1" stop-color="white"/>
</linearGradient>
<linearGradient id="paint6_linear_22_227" x1="56.7678" y1="161.081" x2="68.0815" y2="149.768" gradientUnits="userSpaceOnUse">
<stop stop-color="#5117CD"/>
<stop offset="1" stop-color="#4D7ABE"/>
</linearGradient>
<linearGradient id="paint7_linear_22_227" x1="62.0815" y1="176.081" x2="73.3952" y2="164.768" gradientUnits="userSpaceOnUse">
<stop stop-color="#5117CD"/>
<stop offset="1" stop-color="#4D7ABE"/>
</linearGradient>
<linearGradient id="paint8_linear_22_227" x1="76.7678" y1="161.081" x2="88.0815" y2="149.768" gradientUnits="userSpaceOnUse">
<stop stop-color="#5117CD"/>
<stop offset="1" stop-color="#4D7ABE"/>
</linearGradient>
<linearGradient id="paint9_linear_22_227" x1="82.0815" y1="176.081" x2="93.3952" y2="164.768" gradientUnits="userSpaceOnUse">
<stop stop-color="#5117CD"/>
<stop offset="1" stop-color="#4D7ABE"/>
</linearGradient>
<linearGradient id="paint10_linear_22_227" x1="68.0815" y1="189.081" x2="79.3952" y2="177.768" gradientUnits="userSpaceOnUse">
<stop stop-color="#5117CD"/>
<stop offset="1" stop-color="#4D7ABE"/>
</linearGradient>
<linearGradient id="paint11_linear_22_227" x1="96.7678" y1="161.081" x2="108.081" y2="149.768" gradientUnits="userSpaceOnUse">
<stop stop-color="#5117CD"/>
<stop offset="1" stop-color="#4D7ABE"/>
</linearGradient>
<linearGradient id="paint12_linear_22_227" x1="102.081" y1="176.081" x2="113.395" y2="164.768" gradientUnits="userSpaceOnUse">
<stop stop-color="#5117CD"/>
<stop offset="1" stop-color="#4D7ABE"/>
</linearGradient>
<linearGradient id="paint13_linear_22_227" x1="88.0815" y1="189.081" x2="99.3952" y2="177.768" gradientUnits="userSpaceOnUse">
<stop stop-color="#5117CD"/>
<stop offset="1" stop-color="#4D7ABE"/>
</linearGradient>
<linearGradient id="paint14_linear_22_227" x1="116.768" y1="161.081" x2="128.081" y2="149.768" gradientUnits="userSpaceOnUse">
<stop stop-color="#5117CD"/>
<stop offset="1" stop-color="#4D7ABE"/>
</linearGradient>
<linearGradient id="paint15_linear_22_227" x1="122.081" y1="176.081" x2="133.395" y2="164.768" gradientUnits="userSpaceOnUse">
<stop stop-color="#5117CD"/>
<stop offset="1" stop-color="#4D7ABE"/>
</linearGradient>
<linearGradient id="paint16_linear_22_227" x1="108.081" y1="189.081" x2="119.395" y2="177.768" gradientUnits="userSpaceOnUse">
<stop stop-color="#5117CD"/>
<stop offset="1" stop-color="#4D7ABE"/>
</linearGradient>
<linearGradient id="paint17_linear_22_227" x1="136.768" y1="161.081" x2="148.081" y2="149.768" gradientUnits="userSpaceOnUse">
<stop stop-color="#5117CD"/>
<stop offset="1" stop-color="#4D7ABE"/>
</linearGradient>
</defs>
</svg>
