<svg width="211" height="207" viewBox="0 0 211 207" fill="none" xmlns="http://www.w3.org/2000/svg">
<line x1="71.3137" y1="139.536" x2="63.5355" y2="147.314" stroke="url(#paint0_linear_86_68)" stroke-width="5" stroke-linecap="round"/>
<line x1="76.6274" y1="154.536" x2="68.8493" y2="162.314" stroke="url(#paint1_linear_86_68)" stroke-width="5" stroke-linecap="round"/>
<line x1="91.3137" y1="139.536" x2="83.5355" y2="147.314" stroke="url(#paint2_linear_86_68)" stroke-width="5" stroke-linecap="round"/>
<line x1="96.6274" y1="154.536" x2="88.8493" y2="162.314" stroke="url(#paint3_linear_86_68)" stroke-width="5" stroke-linecap="round"/>
<line x1="82.6274" y1="167.536" x2="74.8493" y2="175.314" stroke="url(#paint4_linear_86_68)" stroke-width="5" stroke-linecap="round"/>
<line x1="111.314" y1="139.536" x2="103.536" y2="147.314" stroke="url(#paint5_linear_86_68)" stroke-width="5" stroke-linecap="round"/>
<line x1="102.627" y1="167.536" x2="94.8493" y2="175.314" stroke="url(#paint6_linear_86_68)" stroke-width="5" stroke-linecap="round"/>
<g filter="url(#filter0_f_86_68)">
<path d="M107.77 117.661C112.651 112.78 120.566 112.78 125.447 117.661C130.329 122.543 130.329 130.457 125.447 135.339L99.2842 161.502C94.4027 166.383 86.4881 166.383 81.6066 161.502C76.725 156.62 76.725 148.706 81.6066 143.824L107.77 117.661Z" fill="url(#paint7_linear_86_68)"/>
<path d="M81.7686 161.446C76.8155 156.613 76.7669 148.664 81.6606 143.77C86.5124 138.918 94.3785 138.918 99.2303 143.77L113.22 157.76C118.66 163.199 117.829 172.241 111.489 176.598C106.649 179.925 100.132 179.366 95.9284 175.264L81.7686 161.446Z" fill="url(#paint8_linear_86_68)"/>
<path d="M98.426 160.03C102.466 154.97 110.009 154.549 114.588 159.127C119.341 163.881 118.676 171.769 113.193 175.659L80.3262 198.977C80.0021 199.206 79.6557 199.403 79.2921 199.564L77.5839 200.317C74.4833 201.685 71 199.414 71 196.025C71 194.962 71.3614 193.93 72.025 193.098L98.426 160.03Z" fill="url(#paint9_linear_86_68)"/>
</g>
<path d="M107.77 117.661C112.651 112.78 120.566 112.78 125.447 117.661C130.329 122.543 130.329 130.457 125.447 135.339L99.2842 161.502C94.4027 166.383 86.4881 166.383 81.6066 161.502C76.725 156.62 76.725 148.706 81.6066 143.824L107.77 117.661Z" fill="url(#paint10_linear_86_68)"/>
<path d="M81.7686 161.446C76.8155 156.613 76.7669 148.664 81.6606 143.77C86.5124 138.918 94.3785 138.918 99.2303 143.77L113.22 157.76C118.66 163.199 117.829 172.241 111.489 176.598C106.649 179.925 100.132 179.366 95.9284 175.264L81.7686 161.446Z" fill="url(#paint11_linear_86_68)"/>
<path d="M98.426 160.03C102.466 154.97 110.009 154.549 114.588 159.127C119.341 163.881 118.676 171.769 113.193 175.659L80.3262 198.977C80.0021 199.206 79.6557 199.403 79.2921 199.564L77.5839 200.317C74.4833 201.685 71 199.414 71 196.025C71 194.962 71.3614 193.93 72.025 193.098L98.426 160.03Z" fill="url(#paint12_linear_86_68)"/>
<line x1="116.627" y1="154.536" x2="108.849" y2="162.314" stroke="url(#paint13_linear_86_68)" stroke-width="5" stroke-linecap="round"/>
<line x1="131.314" y1="139.536" x2="123.536" y2="147.314" stroke="url(#paint14_linear_86_68)" stroke-width="5" stroke-linecap="round"/>
<line x1="136.627" y1="154.536" x2="128.849" y2="162.314" stroke="url(#paint15_linear_86_68)" stroke-width="5" stroke-linecap="round"/>
<line x1="122.627" y1="167.536" x2="114.849" y2="175.314" stroke="url(#paint16_linear_86_68)" stroke-width="5" stroke-linecap="round"/>
<line x1="151.314" y1="139.536" x2="143.536" y2="147.314" stroke="url(#paint17_linear_86_68)" stroke-width="5" stroke-linecap="round"/>
<g filter="url(#filter1_d_86_68)">
<path d="M25 97.9476C25 78.0364 41.2064 61.8952 61.198 61.8952H149.802C169.794 61.8952 186 78.0364 186 97.9476C186 117.859 169.794 134 149.802 134H61.198C41.2064 134 25 117.859 25 97.9476Z" fill="url(#paint18_linear_86_68)" shape-rendering="crispEdges"/>
<path d="M152.503 61.8952C111.443 61.8952 134.12 61.8952 111.443 61.8952C88.7659 61.8952 111.443 61.8952 70.3825 61.8952C70.3825 39.3094 88.7659 21 111.443 21C134.12 21 152.503 39.3094 152.503 61.8952Z" fill="url(#paint19_linear_86_68)" shape-rendering="crispEdges"/>
<path d="M153.002 61.5323C152.806 38.8356 134.273 20.5 111.443 20.5C88.6592 20.5 70.1545 38.7618 69.8855 61.3952H61.198C40.9321 61.3952 24.5 77.7584 24.5 97.9476C24.5 118.137 40.9322 134.5 61.198 134.5H149.802C170.068 134.5 186.5 118.137 186.5 97.9476C186.5 78.8324 171.77 63.147 153.002 61.5323Z" stroke="url(#paint20_linear_86_68)" shape-rendering="crispEdges"/>
</g>
<defs>
<filter id="filter0_f_86_68" x="65" y="108" width="70.1084" height="98.7212" filterUnits="userSpaceOnUse" color-interpolation-filters="sRGB">
<feFlood flood-opacity="0" result="BackgroundImageFix"/>
<feBlend mode="normal" in="SourceGraphic" in2="BackgroundImageFix" result="shape"/>
<feGaussianBlur stdDeviation="3" result="effect1_foregroundBlur_86_68"/>
</filter>
<filter id="filter1_d_86_68" x="0" y="0" width="211" height="163" filterUnits="userSpaceOnUse" color-interpolation-filters="sRGB">
<feFlood flood-opacity="0" result="BackgroundImageFix"/>
<feColorMatrix in="SourceAlpha" type="matrix" values="0 0 0 0 0 0 0 0 0 0 0 0 0 0 0 0 0 0 127 0" result="hardAlpha"/>
<feOffset dy="4"/>
<feGaussianBlur stdDeviation="12"/>
<feComposite in2="hardAlpha" operator="out"/>
<feColorMatrix type="matrix" values="0 0 0 0 0 0 0 0 0 0 0 0 0 0 0 0 0 0 0.25 0"/>
<feBlend mode="normal" in2="BackgroundImageFix" result="effect1_dropShadow_86_68"/>
<feBlend mode="normal" in="SourceGraphic" in2="effect1_dropShadow_86_68" result="shape"/>
</filter>
<linearGradient id="paint0_linear_86_68" x1="61.7678" y1="149.081" x2="73.0815" y2="137.768" gradientUnits="userSpaceOnUse">
<stop stop-color="#5117CD"/>
<stop offset="1" stop-color="#4D7ABE"/>
</linearGradient>
<linearGradient id="paint1_linear_86_68" x1="67.0815" y1="164.081" x2="78.3952" y2="152.768" gradientUnits="userSpaceOnUse">
<stop stop-color="#5117CD"/>
<stop offset="1" stop-color="#4D7ABE"/>
</linearGradient>
<linearGradient id="paint2_linear_86_68" x1="81.7678" y1="149.081" x2="93.0815" y2="137.768" gradientUnits="userSpaceOnUse">
<stop stop-color="#5117CD"/>
<stop offset="1" stop-color="#4D7ABE"/>
</linearGradient>
<linearGradient id="paint3_linear_86_68" x1="87.0815" y1="164.081" x2="98.3952" y2="152.768" gradientUnits="userSpaceOnUse">
<stop stop-color="#5117CD"/>
<stop offset="1" stop-color="#4D7ABE"/>
</linearGradient>
<linearGradient id="paint4_linear_86_68" x1="73.0815" y1="177.081" x2="84.3952" y2="165.768" gradientUnits="userSpaceOnUse">
<stop stop-color="#5117CD"/>
<stop offset="1" stop-color="#4D7ABE"/>
</linearGradient>
<linearGradient id="paint5_linear_86_68" x1="101.768" y1="149.081" x2="113.081" y2="137.768" gradientUnits="userSpaceOnUse">
<stop stop-color="#5117CD"/>
<stop offset="1" stop-color="#4D7ABE"/>
</linearGradient>
<linearGradient id="paint6_linear_86_68" x1="93.0815" y1="177.081" x2="104.395" y2="165.768" gradientUnits="userSpaceOnUse">
<stop stop-color="#5117CD"/>
<stop offset="1" stop-color="#4D7ABE"/>
</linearGradient>
<linearGradient id="paint7_linear_86_68" x1="100.054" y1="114" x2="100.054" y2="200.721" gradientUnits="userSpaceOnUse">
<stop stop-color="#F39C35"/>
<stop offset="1" stop-color="#FFD600"/>
</linearGradient>
<linearGradient id="paint8_linear_86_68" x1="100.054" y1="114" x2="100.054" y2="200.721" gradientUnits="userSpaceOnUse">
<stop stop-color="#F39C35"/>
<stop offset="1" stop-color="#FFD600"/>
</linearGradient>
<linearGradient id="paint9_linear_86_68" x1="100.054" y1="114" x2="100.054" y2="200.721" gradientUnits="userSpaceOnUse">
<stop stop-color="#F39C35"/>
<stop offset="1" stop-color="#FFD600"/>
</linearGradient>
<linearGradient id="paint10_linear_86_68" x1="100.054" y1="114" x2="100.054" y2="200.721" gradientUnits="userSpaceOnUse">
<stop stop-color="#F39C35"/>
<stop offset="1" stop-color="#FFD600"/>
</linearGradient>
<linearGradient id="paint11_linear_86_68" x1="100.054" y1="114" x2="100.054" y2="200.721" gradientUnits="userSpaceOnUse">
<stop stop-color="#F39C35"/>
<stop offset="1" stop-color="#FFD600"/>
</linearGradient>
<linearGradient id="paint12_linear_86_68" x1="100.054" y1="114" x2="100.054" y2="200.721" gradientUnits="userSpaceOnUse">
<stop stop-color="#F39C35"/>
<stop offset="1" stop-color="#FFD600"/>
</linearGradient>
<linearGradient id="paint13_linear_86_68" x1="107.081" y1="164.081" x2="118.395" y2="152.768" gradientUnits="userSpaceOnUse">
<stop stop-color="#5117CD"/>
<stop offset="1" stop-color="#4D7ABE"/>
</linearGradient>
<linearGradient id="paint14_linear_86_68" x1="121.768" y1="149.081" x2="133.081" y2="137.768" gradientUnits="userSpaceOnUse">
<stop stop-color="#5117CD"/>
<stop offset="1" stop-color="#4D7ABE"/>
</linearGradient>
<linearGradient id="paint15_linear_86_68" x1="127.081" y1="164.081" x2="138.395" y2="152.768" gradientUnits="userSpaceOnUse">
<stop stop-color="#5117CD"/>
<stop offset="1" stop-color="#4D7ABE"/>
</linearGradient>
<linearGradient id="paint16_linear_86_68" x1="113.081" y1="177.081" x2="124.395" y2="165.768" gradientUnits="userSpaceOnUse">
<stop stop-color="#5117CD"/>
<stop offset="1" stop-color="#4D7ABE"/>
</linearGradient>
<linearGradient id="paint17_linear_86_68" x1="141.768" y1="149.081" x2="153.081" y2="137.768" gradientUnits="userSpaceOnUse">
<stop stop-color="#5117CD"/>
<stop offset="1" stop-color="#4D7ABE"/>
</linearGradient>
<linearGradient id="paint18_linear_86_68" x1="134.404" y1="28.2643" x2="49.9685" y2="124.921" gradientUnits="userSpaceOnUse">
<stop stop-color="#B7C7E7"/>
<stop offset="1" stop-color="#192A4B"/>
</linearGradient>
<linearGradient id="paint19_linear_86_68" x1="134.404" y1="28.2643" x2="49.9685" y2="124.921" gradientUnits="userSpaceOnUse">
<stop stop-color="#B7C7E7"/>
<stop offset="1" stop-color="#192A4B"/>
</linearGradient>
<linearGradient id="paint20_linear_86_68" x1="79.6987" y1="36.1523" x2="167.76" y2="130.556" gradientUnits="userSpaceOnUse">
<stop stop-color="white" stop-opacity="0.04"/>
<stop offset="0.103886" stop-color="white" stop-opacity="0.24286"/>
<stop offset="1" stop-color="white"/>
</linearGradient>
</defs>
</svg>
