<svg width="150" height="150" viewBox="0 0 150 150" fill="none" xmlns="http://www.w3.org/2000/svg">
<g filter="url(#filter0_f_86_3)">
<circle cx="75" cy="75" r="51" fill="#FFE600"/>
</g>
<circle cx="75" cy="75" r="50.5" fill="url(#paint0_radial_86_3)" stroke="url(#paint1_linear_86_3)"/>
<rect x="73" width="4" height="16" rx="2" fill="url(#paint2_linear_86_3)"/>
<rect x="77" y="150" width="4" height="16" rx="2" transform="rotate(-180 77 150)" fill="url(#paint3_linear_86_3)"/>
<rect x="150" y="73" width="4" height="16" rx="2" transform="rotate(90 150 73)" fill="url(#paint4_linear_86_3)"/>
<rect y="77" width="4" height="16" rx="2" transform="rotate(-90 0 77)" fill="url(#paint5_linear_86_3)"/>
<rect x="126.619" y="20.5528" width="4" height="16" rx="2" transform="rotate(45 126.619 20.5528)" fill="url(#paint6_linear_86_3)"/>
<rect x="23.3812" y="129.447" width="4" height="16" rx="2" transform="rotate(-135 23.3812 129.447)" fill="url(#paint7_linear_86_3)"/>
<rect x="129.447" y="126.619" width="4" height="16" rx="2" transform="rotate(135 129.447 126.619)" fill="url(#paint8_linear_86_3)"/>
<rect x="20.5527" y="23.3812" width="4" height="16" rx="2" transform="rotate(-45 20.5527 23.3812)" fill="url(#paint9_linear_86_3)"/>
<defs>
<filter id="filter0_f_86_3" x="0" y="0" width="150" height="150" filterUnits="userSpaceOnUse" color-interpolation-filters="sRGB">
<feFlood flood-opacity="0" result="BackgroundImageFix"/>
<feBlend mode="normal" in="SourceGraphic" in2="BackgroundImageFix" result="shape"/>
<feGaussianBlur stdDeviation="12" result="effect1_foregroundBlur_86_3"/>
</filter>
<radialGradient id="paint0_radial_86_3" cx="0" cy="0" r="1" gradientUnits="userSpaceOnUse" gradientTransform="translate(89.9483 60.0517) rotate(124.144) scale(61.6215)">
<stop stop-color="#F9FC84"/>
<stop offset="1" stop-color="#F3B71B"/>
</radialGradient>
<linearGradient id="paint1_linear_86_3" x1="98.5" y1="32.5" x2="44.5" y2="126" gradientUnits="userSpaceOnUse">
<stop stop-color="#FFC93E" stop-opacity="0"/>
<stop offset="1" stop-color="#FFC93E"/>
</linearGradient>
<linearGradient id="paint2_linear_86_3" x1="75" y1="0" x2="75" y2="16" gradientUnits="userSpaceOnUse">
<stop stop-color="#FFE709"/>
<stop offset="1" stop-color="#FFB800"/>
</linearGradient>
<linearGradient id="paint3_linear_86_3" x1="79" y1="150" x2="79" y2="166" gradientUnits="userSpaceOnUse">
<stop stop-color="#FFE709"/>
<stop offset="1" stop-color="#FFB800"/>
</linearGradient>
<linearGradient id="paint4_linear_86_3" x1="152" y1="73" x2="152" y2="89" gradientUnits="userSpaceOnUse">
<stop stop-color="#FFE709"/>
<stop offset="1" stop-color="#FFB800"/>
</linearGradient>
<linearGradient id="paint5_linear_86_3" x1="2" y1="77" x2="2" y2="93" gradientUnits="userSpaceOnUse">
<stop stop-color="#FFE709"/>
<stop offset="1" stop-color="#FFB800"/>
</linearGradient>
<linearGradient id="paint6_linear_86_3" x1="128.619" y1="20.5528" x2="128.619" y2="36.5528" gradientUnits="userSpaceOnUse">
<stop stop-color="#FFE709"/>
<stop offset="1" stop-color="#FFB800"/>
</linearGradient>
<linearGradient id="paint7_linear_86_3" x1="25.3812" y1="129.447" x2="25.3812" y2="145.447" gradientUnits="userSpaceOnUse">
<stop stop-color="#FFE709"/>
<stop offset="1" stop-color="#FFB800"/>
</linearGradient>
<linearGradient id="paint8_linear_86_3" x1="131.447" y1="126.619" x2="131.447" y2="142.619" gradientUnits="userSpaceOnUse">
<stop stop-color="#FFE709"/>
<stop offset="1" stop-color="#FFB800"/>
</linearGradient>
<linearGradient id="paint9_linear_86_3" x1="22.5527" y1="23.3812" x2="22.5527" y2="39.3812" gradientUnits="userSpaceOnUse">
<stop stop-color="#FFE709"/>
<stop offset="1" stop-color="#FFB800"/>
</linearGradient>
</defs>
</svg>
