<svg width="221" height="179" viewBox="0 0 221 179" fill="none" xmlns="http://www.w3.org/2000/svg">
<g filter="url(#filter0_f_86_14)">
<circle cx="75.3077" cy="75.3077" r="51.3077" fill="#FFE600"/>
</g>
<circle cx="75.3077" cy="75.3077" r="51.3077" fill="url(#paint0_radial_86_14)"/>
<g filter="url(#filter1_d_86_14)">
<path d="M35 113.332C35 93.4211 51.2064 77.2799 71.198 77.2799H159.802C179.794 77.2799 196 93.4211 196 113.332C196 133.243 179.794 149.385 159.802 149.385H71.198C51.2064 149.385 35 133.243 35 113.332Z" fill="url(#paint1_linear_86_14)" shape-rendering="crispEdges"/>
<path d="M162.503 77.2799C121.443 77.2799 144.12 77.2799 121.443 77.2799C98.7659 77.2799 121.443 77.2799 80.3825 77.2799C80.3825 54.694 98.7659 36.3846 121.443 36.3846C144.12 36.3846 162.503 54.694 162.503 77.2799Z" fill="url(#paint2_linear_86_14)" shape-rendering="crispEdges"/>
<path d="M163.002 76.9169C162.806 54.2202 144.273 35.8846 121.443 35.8846C98.6592 35.8846 80.1545 54.1464 79.8855 76.7799H71.198C50.9321 76.7799 34.5 93.143 34.5 113.332C34.5 133.521 50.9322 149.885 71.198 149.885H159.802C180.068 149.885 196.5 133.521 196.5 113.332C196.5 94.217 181.77 78.5316 163.002 76.9169Z" stroke="url(#paint3_linear_86_14)" shape-rendering="crispEdges"/>
</g>
<defs>
<filter id="filter0_f_86_14" x="0" y="0" width="150.615" height="150.615" filterUnits="userSpaceOnUse" color-interpolation-filters="sRGB">
<feFlood flood-opacity="0" result="BackgroundImageFix"/>
<feBlend mode="normal" in="SourceGraphic" in2="BackgroundImageFix" result="shape"/>
<feGaussianBlur stdDeviation="12" result="effect1_foregroundBlur_86_14"/>
</filter>
<filter id="filter1_d_86_14" x="10" y="15.3846" width="211" height="163" filterUnits="userSpaceOnUse" color-interpolation-filters="sRGB">
<feFlood flood-opacity="0" result="BackgroundImageFix"/>
<feColorMatrix in="SourceAlpha" type="matrix" values="0 0 0 0 0 0 0 0 0 0 0 0 0 0 0 0 0 0 127 0" result="hardAlpha"/>
<feOffset dy="4"/>
<feGaussianBlur stdDeviation="12"/>
<feComposite in2="hardAlpha" operator="out"/>
<feColorMatrix type="matrix" values="0 0 0 0 0 0 0 0 0 0 0 0 0 0 0 0 0 0 0.25 0"/>
<feBlend mode="normal" in2="BackgroundImageFix" result="effect1_dropShadow_86_14"/>
<feBlend mode="normal" in="SourceGraphic" in2="effect1_dropShadow_86_14" result="shape"/>
</filter>
<radialGradient id="paint0_radial_86_14" cx="0" cy="0" r="1" gradientUnits="userSpaceOnUse" gradientTransform="translate(90.3461 60.2692) rotate(124.144) scale(61.9932)">
<stop stop-color="#EFF31B"/>
<stop offset="1" stop-color="#F3B71B"/>
</radialGradient>
<linearGradient id="paint1_linear_86_14" x1="144.404" y1="43.6489" x2="59.9685" y2="140.305" gradientUnits="userSpaceOnUse">
<stop stop-color="white"/>
<stop offset="1" stop-color="#D1D1D1" stop-opacity="0.1"/>
</linearGradient>
<linearGradient id="paint2_linear_86_14" x1="144.404" y1="43.6489" x2="59.9685" y2="140.305" gradientUnits="userSpaceOnUse">
<stop stop-color="white"/>
<stop offset="1" stop-color="#D1D1D1" stop-opacity="0.1"/>
</linearGradient>
<linearGradient id="paint3_linear_86_14" x1="89.6987" y1="51.5369" x2="177.76" y2="145.94" gradientUnits="userSpaceOnUse">
<stop stop-color="white" stop-opacity="0.04"/>
<stop offset="0.103886" stop-color="white" stop-opacity="0.24286"/>
<stop offset="1" stop-color="white"/>
</linearGradient>
</defs>
</svg>
