<svg width="211" height="163" viewBox="0 0 211 163" fill="none" xmlns="http://www.w3.org/2000/svg">
<path fill-rule="evenodd" clip-rule="evenodd" d="M126.431 73.0448C107.154 80.9401 84.1827 76.8594 68.8034 60.9826C53.4241 45.1057 50.0767 22.016 58.5815 2.99998C52.5722 5.46121 46.9219 9.08624 41.9725 13.8805C21.1462 34.0541 20.6172 67.2911 40.7908 88.1173C60.9644 108.944 94.2013 109.473 115.028 89.299C119.977 84.5048 123.78 78.9727 126.431 73.0448Z" fill="url(#paint0_linear_86_20)"/>
<g filter="url(#filter0_d_86_20)">
<path d="M25 97.9476C25 78.0364 41.2064 61.8952 61.198 61.8952H149.802C169.794 61.8952 186 78.0364 186 97.9476C186 117.859 169.794 134 149.802 134H61.198C41.2064 134 25 117.859 25 97.9476Z" fill="url(#paint1_linear_86_20)" shape-rendering="crispEdges"/>
<path d="M152.503 61.8952C111.443 61.8952 134.12 61.8952 111.443 61.8952C88.7659 61.8952 111.443 61.8952 70.3825 61.8952C70.3825 39.3094 88.7659 21 111.443 21C134.12 21 152.503 39.3094 152.503 61.8952Z" fill="url(#paint2_linear_86_20)" shape-rendering="crispEdges"/>
<path d="M153.002 61.5322C152.806 38.8356 134.273 20.5 111.443 20.5C88.6592 20.5 70.1545 38.7618 69.8855 61.3952H61.198C40.9321 61.3952 24.5 77.7584 24.5 97.9476C24.5 118.137 40.9322 134.5 61.198 134.5H149.802C170.068 134.5 186.5 118.137 186.5 97.9476C186.5 78.8324 171.77 63.147 153.002 61.5322Z" stroke="url(#paint3_linear_86_20)" shape-rendering="crispEdges"/>
</g>
<path d="M71.0001 8L72.2858 12.8571H69.7144L71.0001 8Z" fill="#FBFCD9"/>
<path d="M70.9999 18L69.7142 12.8571L72.2856 12.8571L70.9999 18Z" fill="#FBFCD9"/>
<path d="M76 12.8571L70.8571 14.2857L70.8571 11.4286L76 12.8571Z" fill="#FBFCD9"/>
<path d="M66 12.8571L71.1429 11.4286L71.1429 14.2857L66 12.8571Z" fill="#FBFCD9"/>
<path d="M66.0001 31L67.2858 35.8571H64.7144L66.0001 31Z" fill="#FBFCD9"/>
<path d="M65.9999 41L64.7142 35.8571L67.2856 35.8571L65.9999 41Z" fill="#FBFCD9"/>
<path d="M71 35.8571L65.8571 37.2857L65.8571 34.4286L71 35.8571Z" fill="#FBFCD9"/>
<path d="M61 35.8571L66.1429 34.4286L66.1429 37.2857L61 35.8571Z" fill="#FBFCD9"/>
<defs>
<filter id="filter0_d_86_20" x="0" y="-1.52588e-05" width="211" height="163" filterUnits="userSpaceOnUse" color-interpolation-filters="sRGB">
<feFlood flood-opacity="0" result="BackgroundImageFix"/>
<feColorMatrix in="SourceAlpha" type="matrix" values="0 0 0 0 0 0 0 0 0 0 0 0 0 0 0 0 0 0 127 0" result="hardAlpha"/>
<feOffset dy="4"/>
<feGaussianBlur stdDeviation="12"/>
<feComposite in2="hardAlpha" operator="out"/>
<feColorMatrix type="matrix" values="0 0 0 0 0 0 0 0 0 0 0 0 0 0 0 0 0 0 0.25 0"/>
<feBlend mode="normal" in2="BackgroundImageFix" result="effect1_dropShadow_86_20"/>
<feBlend mode="normal" in="SourceGraphic" in2="effect1_dropShadow_86_20" result="shape"/>
</filter>
<linearGradient id="paint0_linear_86_20" x1="76.2156" y1="2.99998" x2="76.2156" y2="104.09" gradientUnits="userSpaceOnUse">
<stop stop-color="#FEFFE1"/>
<stop offset="1" stop-color="#D8DA86"/>
</linearGradient>
<linearGradient id="paint1_linear_86_20" x1="134.404" y1="28.2643" x2="49.9685" y2="124.921" gradientUnits="userSpaceOnUse">
<stop stop-color="white"/>
<stop offset="1" stop-color="#D1D1D1" stop-opacity="0.7"/>
</linearGradient>
<linearGradient id="paint2_linear_86_20" x1="134.404" y1="28.2643" x2="49.9685" y2="124.921" gradientUnits="userSpaceOnUse">
<stop stop-color="white"/>
<stop offset="1" stop-color="#D1D1D1" stop-opacity="0.7"/>
</linearGradient>
<linearGradient id="paint3_linear_86_20" x1="79.6987" y1="36.1523" x2="167.76" y2="130.556" gradientUnits="userSpaceOnUse">
<stop stop-color="white" stop-opacity="0.04"/>
<stop offset="0.103886" stop-color="white" stop-opacity="0.24286"/>
<stop offset="1" stop-color="white"/>
</linearGradient>
</defs>
</svg>
