<svg width="211" height="164" viewBox="0 0 211 164" fill="none" xmlns="http://www.w3.org/2000/svg">
<g filter="url(#filter0_d_86_19)">
<path d="M25 98.3322C25 78.4211 41.2064 62.2799 61.198 62.2799H149.802C169.794 62.2799 186 78.4211 186 98.3322C186 118.243 169.794 134.385 149.802 134.385H61.198C41.2064 134.385 25 118.243 25 98.3322Z" fill="url(#paint0_linear_86_19)" shape-rendering="crispEdges"/>
<path d="M152.503 62.2799C111.443 62.2799 134.12 62.2799 111.443 62.2799C88.7659 62.2799 111.443 62.2799 70.3825 62.2799C70.3825 39.694 88.7659 21.3846 111.443 21.3846C134.12 21.3846 152.503 39.694 152.503 62.2799Z" fill="url(#paint1_linear_86_19)" shape-rendering="crispEdges"/>
<path d="M153.002 61.9169C152.806 39.2202 134.273 20.8846 111.443 20.8846C88.6592 20.8846 70.1545 39.1464 69.8855 61.7799H61.198C40.9321 61.7799 24.5 78.143 24.5 98.3322C24.5 118.521 40.9322 134.885 61.198 134.885H149.802C170.068 134.885 186.5 118.521 186.5 98.3322C186.5 79.217 171.77 63.5316 153.002 61.9169Z" stroke="url(#paint2_linear_86_19)" shape-rendering="crispEdges"/>
</g>
<defs>
<filter id="filter0_d_86_19" x="0" y="0.384613" width="211" height="163" filterUnits="userSpaceOnUse" color-interpolation-filters="sRGB">
<feFlood flood-opacity="0" result="BackgroundImageFix"/>
<feColorMatrix in="SourceAlpha" type="matrix" values="0 0 0 0 0 0 0 0 0 0 0 0 0 0 0 0 0 0 127 0" result="hardAlpha"/>
<feOffset dy="4"/>
<feGaussianBlur stdDeviation="12"/>
<feComposite in2="hardAlpha" operator="out"/>
<feColorMatrix type="matrix" values="0 0 0 0 0 0 0 0 0 0 0 0 0 0 0 0 0 0 0.25 0"/>
<feBlend mode="normal" in2="BackgroundImageFix" result="effect1_dropShadow_86_19"/>
<feBlend mode="normal" in="SourceGraphic" in2="effect1_dropShadow_86_19" result="shape"/>
</filter>
<linearGradient id="paint0_linear_86_19" x1="134.404" y1="28.6489" x2="49.9685" y2="125.305" gradientUnits="userSpaceOnUse">
<stop stop-color="white"/>
<stop offset="1" stop-color="#D1D1D1" stop-opacity="0.1"/>
</linearGradient>
<linearGradient id="paint1_linear_86_19" x1="134.404" y1="28.6489" x2="49.9685" y2="125.305" gradientUnits="userSpaceOnUse">
<stop stop-color="white"/>
<stop offset="1" stop-color="#D1D1D1" stop-opacity="0.1"/>
</linearGradient>
<linearGradient id="paint2_linear_86_19" x1="79.6987" y1="36.5369" x2="167.76" y2="130.94" gradientUnits="userSpaceOnUse">
<stop stop-color="white" stop-opacity="0.04"/>
<stop offset="0.103886" stop-color="white" stop-opacity="0.24286"/>
<stop offset="1" stop-color="white"/>
</linearGradient>
</defs>
</svg>
