<svg width="239" height="189" viewBox="0 0 239 189" fill="none" xmlns="http://www.w3.org/2000/svg">
<g filter="url(#filter0_d_86_85)">
<path d="M14 96.9476C14 77.0364 30.2064 60.8952 50.198 60.8952H138.802C158.794 60.8952 175 77.0364 175 96.9476C175 116.859 158.794 133 138.802 133H50.198C30.2064 133 14 116.859 14 96.9476Z" fill="url(#paint0_linear_86_85)" shape-rendering="crispEdges"/>
<path d="M141.503 60.8952C100.443 60.8952 123.12 60.8952 100.443 60.8952C77.7659 60.8952 100.443 60.8952 59.3825 60.8952C59.3825 38.3094 77.7659 20 100.443 20C123.12 20 141.503 38.3094 141.503 60.8952Z" fill="url(#paint1_linear_86_85)" shape-rendering="crispEdges"/>
</g>
<g filter="url(#filter1_d_86_85)">
<path d="M73 113.414C73 95.97 87.1932 81.8286 104.701 81.8286H182.299C199.807 81.8286 214 95.97 214 113.414C214 130.859 199.807 145 182.299 145H104.701C87.1932 145 73 130.859 73 113.414Z" fill="url(#paint2_linear_86_85)" shape-rendering="crispEdges"/>
<path d="M184.664 81.8286C148.705 81.8286 168.565 81.8286 148.705 81.8286C128.845 81.8286 148.705 81.8286 112.745 81.8286C112.745 62.041 128.845 46 148.705 46C168.565 46 184.664 62.041 184.664 81.8286Z" fill="url(#paint3_linear_86_85)" shape-rendering="crispEdges"/>
<path d="M185.163 81.4537C184.961 61.561 168.714 45.5 148.705 45.5C128.738 45.5 112.517 61.4937 112.248 81.3286H104.701C86.9188 81.3286 72.5 95.6921 72.5 113.414C72.5 131.136 86.9188 145.5 104.701 145.5H182.299C200.081 145.5 214.5 131.136 214.5 113.414C214.5 96.6539 201.604 82.8976 185.163 81.4537Z" stroke="url(#paint4_linear_86_85)" shape-rendering="crispEdges"/>
</g>
<line x1="66.3137" y1="150.536" x2="58.5355" y2="158.314" stroke="url(#paint5_linear_86_85)" stroke-width="5" stroke-linecap="round"/>
<line x1="71.6274" y1="165.536" x2="63.8493" y2="173.314" stroke="url(#paint6_linear_86_85)" stroke-width="5" stroke-linecap="round"/>
<line x1="86.3137" y1="150.536" x2="78.5355" y2="158.314" stroke="url(#paint7_linear_86_85)" stroke-width="5" stroke-linecap="round"/>
<line x1="91.6274" y1="165.536" x2="83.8493" y2="173.314" stroke="url(#paint8_linear_86_85)" stroke-width="5" stroke-linecap="round"/>
<line x1="77.6274" y1="178.536" x2="69.8493" y2="186.314" stroke="url(#paint9_linear_86_85)" stroke-width="5" stroke-linecap="round"/>
<line x1="106.314" y1="150.536" x2="98.5355" y2="158.314" stroke="url(#paint10_linear_86_85)" stroke-width="5" stroke-linecap="round"/>
<line x1="111.627" y1="165.536" x2="103.849" y2="173.314" stroke="url(#paint11_linear_86_85)" stroke-width="5" stroke-linecap="round"/>
<line x1="97.6274" y1="178.536" x2="89.8493" y2="186.314" stroke="url(#paint12_linear_86_85)" stroke-width="5" stroke-linecap="round"/>
<line x1="126.314" y1="150.536" x2="118.536" y2="158.314" stroke="url(#paint13_linear_86_85)" stroke-width="5" stroke-linecap="round"/>
<line x1="131.627" y1="165.536" x2="123.849" y2="173.314" stroke="url(#paint14_linear_86_85)" stroke-width="5" stroke-linecap="round"/>
<line x1="117.627" y1="178.536" x2="109.849" y2="186.314" stroke="url(#paint15_linear_86_85)" stroke-width="5" stroke-linecap="round"/>
<line x1="146.314" y1="150.536" x2="138.536" y2="158.314" stroke="url(#paint16_linear_86_85)" stroke-width="5" stroke-linecap="round"/>
<defs>
<filter id="filter0_d_86_85" x="-10" y="0" width="209" height="161" filterUnits="userSpaceOnUse" color-interpolation-filters="sRGB">
<feFlood flood-opacity="0" result="BackgroundImageFix"/>
<feColorMatrix in="SourceAlpha" type="matrix" values="0 0 0 0 0 0 0 0 0 0 0 0 0 0 0 0 0 0 127 0" result="hardAlpha"/>
<feOffset dy="4"/>
<feGaussianBlur stdDeviation="12"/>
<feComposite in2="hardAlpha" operator="out"/>
<feColorMatrix type="matrix" values="0 0 0 0 0 0 0 0 0 0 0 0 0 0 0 0 0 0 0.25 0"/>
<feBlend mode="normal" in2="BackgroundImageFix" result="effect1_dropShadow_86_85"/>
<feBlend mode="normal" in="SourceGraphic" in2="effect1_dropShadow_86_85" result="shape"/>
</filter>
<filter id="filter1_d_86_85" x="48" y="25" width="191" height="149" filterUnits="userSpaceOnUse" color-interpolation-filters="sRGB">
<feFlood flood-opacity="0" result="BackgroundImageFix"/>
<feColorMatrix in="SourceAlpha" type="matrix" values="0 0 0 0 0 0 0 0 0 0 0 0 0 0 0 0 0 0 127 0" result="hardAlpha"/>
<feOffset dy="4"/>
<feGaussianBlur stdDeviation="12"/>
<feComposite in2="hardAlpha" operator="out"/>
<feColorMatrix type="matrix" values="0 0 0 0 0 0 0 0 0 0 0 0 0 0 0 0 0 0 0.25 0"/>
<feBlend mode="normal" in2="BackgroundImageFix" result="effect1_dropShadow_86_85"/>
<feBlend mode="normal" in="SourceGraphic" in2="effect1_dropShadow_86_85" result="shape"/>
</filter>
<linearGradient id="paint0_linear_86_85" x1="123.404" y1="27.2643" x2="38.9685" y2="123.921" gradientUnits="userSpaceOnUse">
<stop stop-color="#B7C7E7"/>
<stop offset="1" stop-color="#192A4B" stop-opacity="0.1"/>
</linearGradient>
<linearGradient id="paint1_linear_86_85" x1="123.404" y1="27.2643" x2="38.9685" y2="123.921" gradientUnits="userSpaceOnUse">
<stop stop-color="#B7C7E7"/>
<stop offset="1" stop-color="#192A4B" stop-opacity="0.1"/>
</linearGradient>
<linearGradient id="paint2_linear_86_85" x1="168.814" y1="52.3643" x2="94.8352" y2="137.018" gradientUnits="userSpaceOnUse">
<stop stop-color="white"/>
<stop offset="1" stop-color="#D1D1D1" stop-opacity="0.7"/>
</linearGradient>
<linearGradient id="paint3_linear_86_85" x1="168.814" y1="52.3643" x2="94.8352" y2="137.018" gradientUnits="userSpaceOnUse">
<stop stop-color="white"/>
<stop offset="1" stop-color="#D1D1D1" stop-opacity="0.7"/>
</linearGradient>
<linearGradient id="paint4_linear_86_85" x1="120.904" y1="59.275" x2="198.057" y2="141.953" gradientUnits="userSpaceOnUse">
<stop stop-color="white" stop-opacity="0.04"/>
<stop offset="0.103886" stop-color="white" stop-opacity="0.24286"/>
<stop offset="1" stop-color="white"/>
</linearGradient>
<linearGradient id="paint5_linear_86_85" x1="56.7678" y1="160.081" x2="68.0815" y2="148.768" gradientUnits="userSpaceOnUse">
<stop stop-color="#5117CD"/>
<stop offset="1" stop-color="#4D7ABE"/>
</linearGradient>
<linearGradient id="paint6_linear_86_85" x1="62.0815" y1="175.081" x2="73.3952" y2="163.768" gradientUnits="userSpaceOnUse">
<stop stop-color="#5117CD"/>
<stop offset="1" stop-color="#4D7ABE"/>
</linearGradient>
<linearGradient id="paint7_linear_86_85" x1="76.7678" y1="160.081" x2="88.0815" y2="148.768" gradientUnits="userSpaceOnUse">
<stop stop-color="#5117CD"/>
<stop offset="1" stop-color="#4D7ABE"/>
</linearGradient>
<linearGradient id="paint8_linear_86_85" x1="82.0815" y1="175.081" x2="93.3952" y2="163.768" gradientUnits="userSpaceOnUse">
<stop stop-color="#5117CD"/>
<stop offset="1" stop-color="#4D7ABE"/>
</linearGradient>
<linearGradient id="paint9_linear_86_85" x1="68.0815" y1="188.081" x2="79.3952" y2="176.768" gradientUnits="userSpaceOnUse">
<stop stop-color="#5117CD"/>
<stop offset="1" stop-color="#4D7ABE"/>
</linearGradient>
<linearGradient id="paint10_linear_86_85" x1="96.7678" y1="160.081" x2="108.081" y2="148.768" gradientUnits="userSpaceOnUse">
<stop stop-color="#5117CD"/>
<stop offset="1" stop-color="#4D7ABE"/>
</linearGradient>
<linearGradient id="paint11_linear_86_85" x1="102.081" y1="175.081" x2="113.395" y2="163.768" gradientUnits="userSpaceOnUse">
<stop stop-color="#5117CD"/>
<stop offset="1" stop-color="#4D7ABE"/>
</linearGradient>
<linearGradient id="paint12_linear_86_85" x1="88.0815" y1="188.081" x2="99.3952" y2="176.768" gradientUnits="userSpaceOnUse">
<stop stop-color="#5117CD"/>
<stop offset="1" stop-color="#4D7ABE"/>
</linearGradient>
<linearGradient id="paint13_linear_86_85" x1="116.768" y1="160.081" x2="128.081" y2="148.768" gradientUnits="userSpaceOnUse">
<stop stop-color="#5117CD"/>
<stop offset="1" stop-color="#4D7ABE"/>
</linearGradient>
<linearGradient id="paint14_linear_86_85" x1="122.081" y1="175.081" x2="133.395" y2="163.768" gradientUnits="userSpaceOnUse">
<stop stop-color="#5117CD"/>
<stop offset="1" stop-color="#4D7ABE"/>
</linearGradient>
<linearGradient id="paint15_linear_86_85" x1="108.081" y1="188.081" x2="119.395" y2="176.768" gradientUnits="userSpaceOnUse">
<stop stop-color="#5117CD"/>
<stop offset="1" stop-color="#4D7ABE"/>
</linearGradient>
<linearGradient id="paint16_linear_86_85" x1="136.768" y1="160.081" x2="148.081" y2="148.768" gradientUnits="userSpaceOnUse">
<stop stop-color="#5117CD"/>
<stop offset="1" stop-color="#4D7ABE"/>
</linearGradient>
</defs>
</svg>
