<svg width="156" height="156" viewBox="0 0 156 156" fill="none" xmlns="http://www.w3.org/2000/svg">
<path d="M95.0612 78C95.0612 87.4227 87.4227 95.0612 78 95.0612M95.0612 78C95.0612 68.5773 87.4227 60.9388 78 60.9388M95.0612 78H154M78 95.0612C68.5773 95.0612 60.9388 87.4227 60.9388 78M78 95.0612V154M60.9388 78C60.9388 68.5773 68.5773 60.9388 78 60.9388M60.9388 78H2M78 60.9388V2M104.589 2.64245L79.0857 28.1458M51.4111 2.64245L76.9144 28.1458M51.411 153.358L76.9143 127.854M104.589 153.358L79.0855 127.854M153.358 104.589L127.854 79.0856M153.358 51.4111L127.854 76.9144M2.64246 51.4111L28.1458 76.9144M2.64246 104.589L28.1458 79.0856M132.053 24.5733L90.3733 66.2532M150.087 43.5154L114.02 43.5154M112.484 5.91296V41.9801M23.9467 131.427L65.6267 89.7468M5.91314 112.485H41.9803M43.5155 150.087L43.5156 114.02M131.427 132.053L90.1917 90.8184M112.485 150.087V114.02M150.087 112.485H114.02M24.5733 23.9465L66.2533 65.6265M43.5154 5.91295L43.5154 41.9801M5.91296 43.5154L41.9801 43.5154" stroke="url(#paint0_linear_86_102)" stroke-width="4" stroke-linecap="round"/>
<defs>
<linearGradient id="paint0_linear_86_102" x1="22.9388" y1="132.286" x2="133.061" y2="25.2653" gradientUnits="userSpaceOnUse">
<stop stop-color="#C6C6C6"/>
<stop offset="1" stop-color="white"/>
</linearGradient>
</defs>
</svg>
