<svg width="211" height="178" viewBox="0 0 211 178" fill="none" xmlns="http://www.w3.org/2000/svg">
<g filter="url(#filter0_bd_17_292)">
<path d="M25 97.9476C25 78.0364 41.2064 61.8952 61.198 61.8952H149.802C169.794 61.8952 186 78.0364 186 97.9476C186 117.859 169.794 134 149.802 134H61.198C41.2064 134 25 117.859 25 97.9476Z" fill="url(#paint0_linear_17_292)" shape-rendering="crispEdges"/>
<path d="M152.503 61.8952C111.443 61.8952 134.12 61.8952 111.443 61.8952C88.7659 61.8952 111.443 61.8952 70.3825 61.8952C70.3825 39.3094 88.7659 21 111.443 21C134.12 21 152.503 39.3094 152.503 61.8952Z" fill="url(#paint1_linear_17_292)" shape-rendering="crispEdges"/>
<path d="M153.002 61.5323C152.806 38.8356 134.273 20.5 111.443 20.5C88.6592 20.5 70.1545 38.7618 69.8855 61.3952H61.198C40.9321 61.3952 24.5 77.7584 24.5 97.9476C24.5 118.137 40.9322 134.5 61.198 134.5H149.802C170.068 134.5 186.5 118.137 186.5 97.9476C186.5 78.8324 171.77 63.147 153.002 61.5323Z" stroke="url(#paint2_linear_17_292)" shape-rendering="crispEdges"/>
</g>
<line x1="69" y1="139.536" x2="61.2218" y2="147.314" stroke="url(#paint3_linear_17_292)" stroke-width="5" stroke-linecap="round"/>
<line x1="74.3137" y1="154.536" x2="66.5355" y2="162.314" stroke="url(#paint4_linear_17_292)" stroke-width="5" stroke-linecap="round"/>
<line x1="89" y1="139.536" x2="81.2218" y2="147.314" stroke="url(#paint5_linear_17_292)" stroke-width="5" stroke-linecap="round"/>
<line x1="94.3137" y1="154.536" x2="86.5355" y2="162.314" stroke="url(#paint6_linear_17_292)" stroke-width="5" stroke-linecap="round"/>
<line x1="80.3137" y1="167.536" x2="72.5355" y2="175.314" stroke="url(#paint7_linear_17_292)" stroke-width="5" stroke-linecap="round"/>
<line x1="109" y1="139.536" x2="101.222" y2="147.314" stroke="url(#paint8_linear_17_292)" stroke-width="5" stroke-linecap="round"/>
<line x1="114.314" y1="154.536" x2="106.536" y2="162.314" stroke="url(#paint9_linear_17_292)" stroke-width="5" stroke-linecap="round"/>
<line x1="100.314" y1="167.536" x2="92.5355" y2="175.314" stroke="url(#paint10_linear_17_292)" stroke-width="5" stroke-linecap="round"/>
<line x1="129" y1="139.536" x2="121.222" y2="147.314" stroke="url(#paint11_linear_17_292)" stroke-width="5" stroke-linecap="round"/>
<line x1="134.314" y1="154.536" x2="126.536" y2="162.314" stroke="url(#paint12_linear_17_292)" stroke-width="5" stroke-linecap="round"/>
<line x1="120.314" y1="167.536" x2="112.536" y2="175.314" stroke="url(#paint13_linear_17_292)" stroke-width="5" stroke-linecap="round"/>
<line x1="149" y1="139.536" x2="141.222" y2="147.314" stroke="url(#paint14_linear_17_292)" stroke-width="5" stroke-linecap="round"/>
<defs>
<filter id="filter0_bd_17_292" x="-26" y="-30" width="263" height="215" filterUnits="userSpaceOnUse" color-interpolation-filters="sRGB">
<feFlood flood-opacity="0" result="BackgroundImageFix"/>
<feGaussianBlur in="BackgroundImage" stdDeviation="25"/>
<feComposite in2="SourceAlpha" operator="in" result="effect1_backgroundBlur_17_292"/>
<feColorMatrix in="SourceAlpha" type="matrix" values="0 0 0 0 0 0 0 0 0 0 0 0 0 0 0 0 0 0 127 0" result="hardAlpha"/>
<feOffset dy="4"/>
<feGaussianBlur stdDeviation="12"/>
<feComposite in2="hardAlpha" operator="out"/>
<feColorMatrix type="matrix" values="0 0 0 0 0 0 0 0 0 0 0 0 0 0 0 0 0 0 0.25 0"/>
<feBlend mode="normal" in2="effect1_backgroundBlur_17_292" result="effect2_dropShadow_17_292"/>
<feBlend mode="normal" in="SourceGraphic" in2="effect2_dropShadow_17_292" result="shape"/>
</filter>
<linearGradient id="paint0_linear_17_292" x1="134.404" y1="28.2643" x2="49.9685" y2="124.921" gradientUnits="userSpaceOnUse">
<stop stop-color="#B7C7E7"/>
<stop offset="1" stop-color="#192A4B" stop-opacity="0.1"/>
</linearGradient>
<linearGradient id="paint1_linear_17_292" x1="134.404" y1="28.2643" x2="49.9685" y2="124.921" gradientUnits="userSpaceOnUse">
<stop stop-color="#B7C7E7"/>
<stop offset="1" stop-color="#192A4B" stop-opacity="0.1"/>
</linearGradient>
<linearGradient id="paint2_linear_17_292" x1="79.6987" y1="36.1523" x2="167.76" y2="130.556" gradientUnits="userSpaceOnUse">
<stop stop-color="white" stop-opacity="0.04"/>
<stop offset="0.103886" stop-color="white" stop-opacity="0.24286"/>
<stop offset="1" stop-color="white"/>
</linearGradient>
<linearGradient id="paint3_linear_17_292" x1="59.4541" y1="149.081" x2="70.7678" y2="137.768" gradientUnits="userSpaceOnUse">
<stop stop-color="#5117CD"/>
<stop offset="1" stop-color="#4D7ABE"/>
</linearGradient>
<linearGradient id="paint4_linear_17_292" x1="64.7678" y1="164.081" x2="76.0815" y2="152.768" gradientUnits="userSpaceOnUse">
<stop stop-color="#5117CD"/>
<stop offset="1" stop-color="#4D7ABE"/>
</linearGradient>
<linearGradient id="paint5_linear_17_292" x1="79.4541" y1="149.081" x2="90.7678" y2="137.768" gradientUnits="userSpaceOnUse">
<stop stop-color="#5117CD"/>
<stop offset="1" stop-color="#4D7ABE"/>
</linearGradient>
<linearGradient id="paint6_linear_17_292" x1="84.7678" y1="164.081" x2="96.0815" y2="152.768" gradientUnits="userSpaceOnUse">
<stop stop-color="#5117CD"/>
<stop offset="1" stop-color="#4D7ABE"/>
</linearGradient>
<linearGradient id="paint7_linear_17_292" x1="70.7678" y1="177.081" x2="82.0815" y2="165.768" gradientUnits="userSpaceOnUse">
<stop stop-color="#5117CD"/>
<stop offset="1" stop-color="#4D7ABE"/>
</linearGradient>
<linearGradient id="paint8_linear_17_292" x1="99.4541" y1="149.081" x2="110.768" y2="137.768" gradientUnits="userSpaceOnUse">
<stop stop-color="#5117CD"/>
<stop offset="1" stop-color="#4D7ABE"/>
</linearGradient>
<linearGradient id="paint9_linear_17_292" x1="104.768" y1="164.081" x2="116.081" y2="152.768" gradientUnits="userSpaceOnUse">
<stop stop-color="#5117CD"/>
<stop offset="1" stop-color="#4D7ABE"/>
</linearGradient>
<linearGradient id="paint10_linear_17_292" x1="90.7678" y1="177.081" x2="102.081" y2="165.768" gradientUnits="userSpaceOnUse">
<stop stop-color="#5117CD"/>
<stop offset="1" stop-color="#4D7ABE"/>
</linearGradient>
<linearGradient id="paint11_linear_17_292" x1="119.454" y1="149.081" x2="130.768" y2="137.768" gradientUnits="userSpaceOnUse">
<stop stop-color="#5117CD"/>
<stop offset="1" stop-color="#4D7ABE"/>
</linearGradient>
<linearGradient id="paint12_linear_17_292" x1="124.768" y1="164.081" x2="136.081" y2="152.768" gradientUnits="userSpaceOnUse">
<stop stop-color="#5117CD"/>
<stop offset="1" stop-color="#4D7ABE"/>
</linearGradient>
<linearGradient id="paint13_linear_17_292" x1="110.768" y1="177.081" x2="122.081" y2="165.768" gradientUnits="userSpaceOnUse">
<stop stop-color="#5117CD"/>
<stop offset="1" stop-color="#4D7ABE"/>
</linearGradient>
<linearGradient id="paint14_linear_17_292" x1="139.454" y1="149.081" x2="150.768" y2="137.768" gradientUnits="userSpaceOnUse">
<stop stop-color="#5117CD"/>
<stop offset="1" stop-color="#4D7ABE"/>
</linearGradient>
</defs>
</svg>
