<svg width="249" height="174" viewBox="0 0 249 174" fill="none" xmlns="http://www.w3.org/2000/svg">
<g filter="url(#filter0_d_86_25)">
<path d="M24 96.9476C24 77.0364 40.2064 60.8952 60.198 60.8952H148.802C168.794 60.8952 185 77.0364 185 96.9476C185 116.859 168.794 133 148.802 133H60.198C40.2064 133 24 116.859 24 96.9476Z" fill="url(#paint0_linear_86_25)" shape-rendering="crispEdges"/>
<path d="M151.503 60.8952C110.443 60.8952 133.12 60.8952 110.443 60.8952C87.7659 60.8952 110.443 60.8952 69.3825 60.8952C69.3825 38.3094 87.7659 20 110.443 20C133.12 20 151.503 38.3094 151.503 60.8952Z" fill="url(#paint1_linear_86_25)" shape-rendering="crispEdges"/>
</g>
<g filter="url(#filter1_d_86_25)">
<path d="M83 113.414C83 95.97 97.1932 81.8286 114.701 81.8286H192.299C209.807 81.8286 224 95.97 224 113.414C224 130.859 209.807 145 192.299 145H114.701C97.1932 145 83 130.859 83 113.414Z" fill="url(#paint2_linear_86_25)" shape-rendering="crispEdges"/>
<path d="M194.664 81.8286C158.705 81.8286 178.565 81.8286 158.705 81.8286C138.845 81.8286 158.705 81.8286 122.745 81.8286C122.745 62.041 138.845 46 158.705 46C178.565 46 194.664 62.041 194.664 81.8286Z" fill="url(#paint3_linear_86_25)" shape-rendering="crispEdges"/>
<path d="M195.163 81.4537C194.961 61.561 178.714 45.5 158.705 45.5C138.738 45.5 122.517 61.4937 122.248 81.3286H114.701C96.9188 81.3286 82.5 95.6921 82.5 113.414C82.5 131.136 96.9188 145.5 114.701 145.5H192.299C210.081 145.5 224.5 131.136 224.5 113.414C224.5 96.654 211.604 82.8976 195.163 81.4537Z" stroke="url(#paint4_linear_86_25)" shape-rendering="crispEdges"/>
</g>
<defs>
<filter id="filter0_d_86_25" x="0" y="0" width="209" height="161" filterUnits="userSpaceOnUse" color-interpolation-filters="sRGB">
<feFlood flood-opacity="0" result="BackgroundImageFix"/>
<feColorMatrix in="SourceAlpha" type="matrix" values="0 0 0 0 0 0 0 0 0 0 0 0 0 0 0 0 0 0 127 0" result="hardAlpha"/>
<feOffset dy="4"/>
<feGaussianBlur stdDeviation="12"/>
<feComposite in2="hardAlpha" operator="out"/>
<feColorMatrix type="matrix" values="0 0 0 0 0 0 0 0 0 0 0 0 0 0 0 0 0 0 0.25 0"/>
<feBlend mode="normal" in2="BackgroundImageFix" result="effect1_dropShadow_86_25"/>
<feBlend mode="normal" in="SourceGraphic" in2="effect1_dropShadow_86_25" result="shape"/>
</filter>
<filter id="filter1_d_86_25" x="58" y="25" width="191" height="149" filterUnits="userSpaceOnUse" color-interpolation-filters="sRGB">
<feFlood flood-opacity="0" result="BackgroundImageFix"/>
<feColorMatrix in="SourceAlpha" type="matrix" values="0 0 0 0 0 0 0 0 0 0 0 0 0 0 0 0 0 0 127 0" result="hardAlpha"/>
<feOffset dy="4"/>
<feGaussianBlur stdDeviation="12"/>
<feComposite in2="hardAlpha" operator="out"/>
<feColorMatrix type="matrix" values="0 0 0 0 0 0 0 0 0 0 0 0 0 0 0 0 0 0 0.25 0"/>
<feBlend mode="normal" in2="BackgroundImageFix" result="effect1_dropShadow_86_25"/>
<feBlend mode="normal" in="SourceGraphic" in2="effect1_dropShadow_86_25" result="shape"/>
</filter>
<linearGradient id="paint0_linear_86_25" x1="133.404" y1="27.2643" x2="48.9685" y2="123.921" gradientUnits="userSpaceOnUse">
<stop stop-color="#B7C7E7"/>
<stop offset="1" stop-color="#192A4B" stop-opacity="0.1"/>
</linearGradient>
<linearGradient id="paint1_linear_86_25" x1="133.404" y1="27.2643" x2="48.9685" y2="123.921" gradientUnits="userSpaceOnUse">
<stop stop-color="#B7C7E7"/>
<stop offset="1" stop-color="#192A4B" stop-opacity="0.1"/>
</linearGradient>
<linearGradient id="paint2_linear_86_25" x1="178.814" y1="52.3643" x2="104.835" y2="137.018" gradientUnits="userSpaceOnUse">
<stop stop-color="white"/>
<stop offset="1" stop-color="#D1D1D1" stop-opacity="0.71"/>
</linearGradient>
<linearGradient id="paint3_linear_86_25" x1="178.814" y1="52.3643" x2="104.835" y2="137.018" gradientUnits="userSpaceOnUse">
<stop stop-color="white"/>
<stop offset="1" stop-color="#D1D1D1" stop-opacity="0.71"/>
</linearGradient>
<linearGradient id="paint4_linear_86_25" x1="130.904" y1="59.275" x2="208.057" y2="141.953" gradientUnits="userSpaceOnUse">
<stop stop-color="white" stop-opacity="0.04"/>
<stop offset="0.103886" stop-color="white" stop-opacity="0.24286"/>
<stop offset="1" stop-color="white"/>
</linearGradient>
</defs>
</svg>
